<?xml version="1.0" standalone="no"?>
<!DOCTYPE svg PUBLIC "-//W3C//DTD SVG 20010904//EN"
 "http://www.w3.org/TR/2001/REC-SVG-20010904/DTD/svg10.dtd">
<svg version="1.0" xmlns="http://www.w3.org/2000/svg"
 width="400.000000pt" height="150.000000pt" viewBox="0 0 400.000000 150.000000"
 preserveAspectRatio="xMidYMid meet">

<g transform="translate(0.000000,150.000000) scale(0.100000,-0.100000)"
fill="#000000" stroke="none">
<path d="M395 894 c-10 -67 -14 -74 -46 -74 -24 0 -29 -4 -29 -24 0 -13 -3
-31 -6 -40 -5 -13 1 -16 26 -16 25 0 31 -3 26 -16 -3 -9 -6 -20 -6 -25 0 -5
-13 -9 -30 -9 -22 0 -30 -5 -30 -17 0 -10 -3 -28 -6 -40 -5 -20 -2 -23 21 -23
l27 0 -7 -65 -7 -65 40 0 c44 0 41 -4 58 93 6 33 9 37 36 37 23 0 29 -4 24
-15 -3 -8 -8 -37 -12 -65 l-7 -50 41 0 c44 0 41 -5 58 93 5 32 10 37 34 37 20
0 29 6 34 23 12 44 7 57 -19 57 -20 0 -25 5 -25 25 0 21 5 25 29 25 30 0 41
14 41 56 0 19 -5 24 -26 24 -25 0 -26 2 -19 38 3 20 9 47 12 60 5 20 2 22 -39
22 l-45 0 -9 -57 c-8 -54 -11 -58 -38 -61 -28 -4 -28 -3 -21 40 3 24 9 51 11
61 5 14 -2 17 -39 17 l-45 0 -7 -46z m115 -163 c0 -25 -14 -41 -36 -41 -19 0
-24 5 -24 25 0 21 5 25 30 25 17 0 30 -4 30 -9z"/>
<path d="M730 710 l0 -230 70 0 69 0 3 118 3 117 38 -72 c34 -66 40 -73 67
-73 27 0 33 7 69 78 l40 77 1 -122 0 -123 70 0 70 0 0 230 0 230 -68 0 -68 0
-54 -110 c-63 -129 -57 -130 -131 22 l-43 88 -68 0 -68 0 0 -230z"/>
<path d="M2113 928 l-53 -10 0 -219 0 -219 70 0 70 0 0 48 c0 43 12 72 31 72
4 0 14 -17 22 -39 23 -55 59 -81 117 -81 47 0 47 0 54 38 9 57 8 62 -17 62
-29 0 -55 27 -63 66 -5 27 -1 33 43 63 26 19 50 36 52 37 2 2 -13 26 -34 54
-33 45 -39 49 -54 37 -9 -7 -44 -36 -77 -65 -34 -29 -64 -52 -68 -52 -3 0 -6
50 -6 110 0 124 8 115 -87 98z"/>
<path d="M3446 923 c-2 -10 -8 -37 -11 -60 -6 -39 -10 -43 -35 -43 -20 0 -29
-6 -34 -22 -12 -45 -7 -58 19 -58 20 0 25 -5 25 -25 0 -21 -5 -25 -29 -25 -30
0 -41 -14 -41 -56 0 -19 5 -24 26 -24 28 0 28 0 8 -103 -6 -28 -5 -28 38 -25
l43 3 10 60 c10 56 13 60 39 63 31 4 31 5 10 -100 -5 -27 -4 -28 39 -28 l44 0
9 63 c8 58 11 62 37 65 29 4 31 6 41 55 6 25 4 27 -25 27 -24 0 -30 3 -25 16
3 9 6 20 6 25 0 5 14 9 30 9 22 0 30 5 30 18 0 9 3 27 6 40 6 19 3 22 -23 22
-30 0 -30 0 -22 43 14 74 13 77 -30 77 l-40 0 -12 -60 c-11 -57 -13 -60 -41
-60 -21 0 -29 4 -25 14 3 7 9 34 12 60 l7 46 -40 0 c-30 0 -42 -5 -46 -17z
m104 -208 c0 -21 -5 -25 -30 -25 -16 0 -30 4 -30 9 0 25 14 41 36 41 19 0 24
-5 24 -25z"/>
<path d="M1380 798 c-31 -16 -51 -36 -67 -67 -29 -56 -29 -105 0 -161 30 -60
76 -90 139 -90 41 0 54 5 79 29 l29 29 0 -29 0 -29 70 0 70 0 0 170 0 170 -70
0 -70 0 0 -37 c0 -37 0 -37 -16 -15 -19 27 -65 52 -96 52 -13 0 -44 -10 -68
-22z m170 -121 c33 -58 -30 -119 -88 -86 -19 10 -28 24 -30 47 -7 76 80 104
118 39z"/>
<path d="M1760 650 l0 -170 70 0 70 0 0 93 c0 50 4 97 8 103 12 19 49 34 82
34 l31 0 -7 48 c-3 26 -10 51 -14 55 -11 12 -56 -9 -79 -39 l-21 -27 0 37 0
36 -70 0 -70 0 0 -170z"/>
<path d="M2588 811 c-41 -14 -87 -49 -103 -81 -23 -45 -19 -131 8 -170 42 -62
69 -75 161 -75 75 0 86 3 119 28 53 40 70 79 65 147 -5 67 -31 110 -83 135
-43 20 -129 28 -167 16z m106 -107 c58 -57 -2 -164 -68 -121 -29 19 -40 49
-32 82 8 33 33 55 61 55 13 0 31 -7 39 -16z"/>
<path d="M2890 650 l0 -170 70 0 70 0 0 94 c0 79 3 97 21 120 22 27 57 34 77
14 8 -8 12 -49 12 -120 l0 -108 70 0 70 0 0 103 c0 119 -10 160 -47 199 -49
51 -118 50 -178 -3 l-35 -31 0 36 0 36 -65 0 -65 0 0 -170z"/>
</g>
</svg>
